<?xml version="1.0" encoding="UTF-8" standalone="no"?>
<!-- Created with Inkscape (http://www.inkscape.org/) -->

<svg
   width="178.14795mm"
   height="178.14795mm"
   viewBox="0 0 178.14795 178.14795"
   version="1.1"
   id="svg5"
   inkscape:export-filename="/home/parker/CHBC Logo.png"
   inkscape:export-xdpi="73"
   inkscape:export-ydpi="73"
   inkscape:version="1.1 (1:1.1+202105261517+ce6663b3b7)"
   sodipodi:docname="CHBC Logo.svg"
   xmlns:inkscape="http://www.inkscape.org/namespaces/inkscape"
   xmlns:sodipodi="http://sodipodi.sourceforge.net/DTD/sodipodi-0.dtd"
   xmlns="http://www.w3.org/2000/svg"
   xmlns:svg="http://www.w3.org/2000/svg">
  <sodipodi:namedview
     id="namedview7"
     pagecolor="#ffffff"
     bordercolor="#666666"
     borderopacity="1.0"
     inkscape:pageshadow="2"
     inkscape:pageopacity="0.0"
     inkscape:pagecheckerboard="0"
     inkscape:document-units="mm"
     showgrid="false"
     fit-margin-top="0"
     fit-margin-left="0"
     fit-margin-right="0"
     fit-margin-bottom="0"
     inkscape:zoom="0.67081229"
     inkscape:cx="330.94206"
     inkscape:cy="415.1683"
     inkscape:window-width="1620"
     inkscape:window-height="986"
     inkscape:window-x="1740"
     inkscape:window-y="27"
     inkscape:window-maximized="1"
     inkscape:current-layer="layer2" />
  <defs
     id="defs2" />
  <g
     inkscape:label="Layer 1"
     inkscape:groupmode="layer"
     id="layer1"
     transform="translate(-17.524527,-38.671333)">
    <circle
       style="fill:#d1d1d1;fill-opacity:1;stroke-width:0.264583"
       id="path1080"
       cx="106.5985"
       cy="127.74531"
       r="89.073975" />
  </g>
  <g
     inkscape:groupmode="layer"
     id="layer2"
     inkscape:label="Layer 2">
    <g
       id="g1032"
       transform="translate(-16.76998,-35.870345)">
      <path
         style="fill:#5992c6;stroke-width:0.347945"
         d="m 58.511506,184.89856 c -5.086402,-1.90286 -8.336979,-6.90829 -7.803147,-12.01572 0.284664,-2.72352 1.216205,-4.73191 3.157292,-6.80709 3.442389,-3.68019 8.670071,-4.70311 13.138787,-2.57092 2.138976,1.02059 4.451597,2.84022 4.451597,3.50263 0,0.18233 -0.553462,0.81746 -1.229916,1.41139 -1.477828,1.29755 -2.679603,1.37808 -4.9652,0.33268 -2.944716,-1.34687 -5.539326,-0.81649 -7.624687,1.5586 -2.462248,2.80435 -1.483906,7.15898 2.008695,8.94078 1.824019,0.93054 3.542632,0.86243 5.856283,-0.2321 1.819726,-0.86087 2.02652,-0.88806 3.307533,-0.43493 0.751544,0.26584 1.684646,0.91318 2.073562,1.43853 l 0.707115,0.95519 -1.020227,1.06489 c -0.561128,0.58569 -2.033378,1.56366 -3.271674,2.17327 -2.802058,1.37944 -6.214914,1.64468 -8.786013,0.6828 z m 22.421064,0.31576 c -0.342764,-0.21758 -0.419601,-2.73274 -0.347945,-11.38988 l 0.09196,-11.11064 2.293868,-0.10163 c 1.606021,-0.0712 2.410895,0.0394 2.684132,0.3686 0.220455,0.26563 0.433526,2.12659 0.489692,4.27698 l 0.09943,3.80674 h 4.523288 4.523288 l 0.173972,-4.17535 0.173973,-4.17534 2.205036,-0.10437 c 1.326159,-0.0628 2.400956,0.0582 2.696576,0.30356 0.40398,0.33527 0.49154,2.31958 0.49154,11.13939 0,12.07173 0.14354,11.45716 -2.673703,11.44708 -2.923749,-0.0105 -2.860931,0.0877 -2.970001,-4.64338 l -0.09739,-4.22447 H 90.766998 86.24371 l -0.09439,4.00137 c -0.07685,3.25769 -0.202379,4.08221 -0.675407,4.4363 -0.643215,0.4815 -3.849961,0.58391 -4.541339,0.14504 z m 30.79271,-0.11892 c -0.56792,-0.42622 -0.60734,-1.28896 -0.52192,-11.42132 l 0.0924,-10.96028 5.75805,-0.0951 c 5.46866,-0.0903 5.83589,-0.054 7.30685,0.7226 3.14879,1.6624 4.73316,5.78171 3.26928,8.49999 -0.51021,0.9474 -0.55635,1.3073 -0.22717,1.77179 0.22721,0.32059 0.74502,1.19738 1.15069,1.94841 1.59392,2.95088 0.13129,7.04156 -3.18137,8.89764 -1.4484,0.81154 -1.92765,0.87615 -7.2914,0.98297 -4.36996,0.087 -5.88781,0.004 -6.35541,-0.34672 z m 11.65653,-6.41699 c 0.64805,-1.42232 -0.57348,-2.22077 -3.39751,-2.22077 -3.00552,0 -3.29539,0.1563 -3.29539,1.77695 v 1.35456 h 3.13897 c 3.04815,0 3.15097,-0.0263 3.55393,-0.91074 z m -0.99015,-8.57077 c 0.2785,-0.44308 0.27813,-0.77473 -0.001,-1.21781 -0.3093,-0.49034 -0.88483,-0.6089 -2.95576,-0.6089 h -2.57167 l -0.10888,1.31982 -0.10889,1.31982 2.68191,-0.10201 c 2.10233,-0.08 2.76461,-0.2336 3.06464,-0.71092 z m 24.39451,14.9307 c -3.42145,-1.13329 -5.65301,-3.10879 -7.19698,-6.37117 -2.12686,-4.49402 -0.98229,-10.08711 2.73151,-13.34786 4.44541,-3.90312 10.79661,-3.8896 15.53158,0.0331 1.61148,1.33503 1.59263,2.23354 -0.0703,3.35151 -1.47227,0.98979 -2.78012,1.00637 -4.63751,0.0588 -2.57592,-1.31414 -5.61404,-0.85108 -7.46594,1.13791 -2.60035,2.79284 -1.69579,7.64659 1.7345,9.30717 1.982,0.95947 3.48164,0.91579 5.81013,-0.16922 1.32364,-0.61677 2.23167,-0.82839 2.94495,-0.68631 1.09578,0.21828 2.97012,1.78288 2.97012,2.47931 0,0.67467 -2.74112,2.95315 -4.4807,3.72445 -1.9902,0.88244 -5.93384,1.12408 -7.87136,0.48233 z M 99.080662,158.68417 c -4.795889,-4.18934 -11.741676,-8.14245 -17.882161,-10.17742 -14.158395,-4.69214 -31.827586,-4.65037 -49.982919,0.11815 -5.918352,1.55446 -6.732151,1.65272 -6.732151,0.81281 0,-0.88207 3.189366,-5.35232 4.17389,-5.85017 0.479223,-0.24233 2.123919,-0.69779 3.654878,-1.01214 10.516581,-2.15935 13.590128,-2.4622 25.052055,-2.46853 9.236721,-0.005 10.443663,0.0644 14.265754,0.82202 11.163878,2.21278 18.924998,6.23883 25.874194,13.42214 2.998158,3.09916 4.888468,5.86386 4.270448,6.24582 -0.16246,0.1004 -1.37476,-0.7603 -2.693988,-1.91268 z m 11.409958,-0.0355 c 1.13923,-2.05956 7.38911,-8.21649 10.31509,-10.16167 11.87035,-7.89139 29.69743,-10.54963 50.16266,-7.47986 5.13533,0.7703 10.43786,1.85479 11.87731,2.42919 1.14086,0.45525 4.64247,5.64209 4.3404,6.4293 -0.12583,0.3279 -0.45146,0.46817 -0.81942,0.35297 -9.60501,-3.00684 -23.48032,-5.08098 -33.91135,-5.06921 -16.41684,0.0186 -28.63782,4.02231 -39.45022,12.92451 -2.96314,2.43964 -3.63037,2.59216 -2.51447,0.57477 z m -9.63321,-8.85688 c -1.148223,-1.06172 -3.489463,-2.86966 -5.202759,-4.01763 -7.879842,-5.27982 -16.046562,-8.11288 -26.965476,-9.35442 -4.701297,-0.53455 -18.972428,-0.20996 -22.63314,0.5148 -3.591912,0.71114 -5.219179,0.70833 -5.219179,-0.009 0,-0.69497 1.949859,-3.37282 3.644249,-5.00484 l 1.26435,-1.2178 8.890495,-0.10898 c 9.613701,-0.11785 12.895256,0.18381 20.647483,1.89803 9.295881,2.05556 17.4163,6.18631 23.159268,11.78081 2.497229,2.43267 5.024299,5.92438 5.024299,6.94219 0,0.84655 -0.3778,0.64052 -2.60959,-1.42314 z m 7.48408,1.17889 c 0.007,-0.97011 2.32433,-4.38958 4.31501,-6.36803 5.49314,-5.45942 14.51557,-10.04812 24.21324,-12.31457 5.17612,-1.20972 10.64141,-1.72895 19.13951,-1.81837 8.95976,-0.0943 9.79249,0.0504 11.96137,2.07833 1.17063,1.09455 2.99775,3.82873 2.99775,4.48597 0,0.64765 -1.79425,0.57562 -7.48083,-0.30034 -9.43549,-1.45343 -21.19425,-0.89038 -30.26871,1.44937 -8.68738,2.23995 -17.78569,6.92905 -22.26146,11.47315 -1.68714,1.7129 -2.6224,2.18286 -2.61588,1.31449 z M 97.899872,137.18361 c -2.041186,-2.09817 -3.298918,-3.03679 -5.774356,-4.30928 -6.019453,-3.09427 -13.922767,-5.14714 -25.018796,-6.49856 -8.747736,-1.06542 -8.872603,-1.08499 -8.872603,-1.39063 0,-0.468 7.286098,-0.69786 25.295454,-0.79804 11.819709,-0.0657 17.234079,0.0201 17.491349,0.27723 0.49044,0.49022 0.33348,15.19026 -0.16351,15.31465 -0.19137,0.0479 -1.522264,-1.12002 -2.957538,-2.59537 z m 12.178078,-5.06845 c 0,-4.29453 0.11744,-7.87822 0.26096,-7.96375 0.14353,-0.0855 9.69838,-0.044 21.23301,0.0922 15.32025,0.18096 21.08232,0.35799 21.38123,0.6569 0.24904,0.24904 0.26861,0.40919 0.05,0.40919 -1.53888,0 -15.42451,1.93385 -18.83576,2.62325 -10.73203,2.16891 -18.88467,6.0322 -22.05979,10.45347 -1.94254,2.70494 -2.02965,2.43579 -2.02965,-6.27125 z M 53.101925,112.55323 c -1.357542,-0.54778 0.807282,-11.06848 3.556856,-17.285758 0.463307,-1.047618 1.018993,-2.013914 1.234858,-2.147327 0.215865,-0.133412 2.885986,0.572245 5.933604,1.568127 6.308413,2.061429 5.942361,1.620116 4.860102,5.859338 -0.374563,1.46716 -0.935566,4.62436 -1.246674,7.01601 -0.311108,2.39164 -0.728413,4.54455 -0.927337,4.78424 -0.267009,0.32173 -2.012727,0.42861 -6.66908,0.40833 -3.469069,-0.0151 -6.503116,-0.10644 -6.742329,-0.20296 z m 17.872036,-0.009 c -0.598038,-0.16237 -0.635759,-0.42136 -0.426612,-2.92922 0.231721,-2.77854 1.314178,-8.60458 1.975351,-10.631826 0.197326,-0.605031 0.546921,-1.172217 0.776878,-1.26041 0.342705,-0.131444 5.888879,0.837754 12.074266,2.109981 1.179656,0.242635 1.21699,0.299535 1.191653,1.816235 -0.05739,3.43549 -0.613925,10.06661 -0.881241,10.49997 -0.21804,0.35348 -1.881834,0.47343 -7.169091,0.51684 -3.786837,0.0311 -7.180378,-0.0236 -7.541204,-0.12157 z m 18.741174,-0.34064 c -0.450916,-0.45092 -0.535654,-0.97253 -0.381556,-2.34863 0.108952,-0.97294 0.301675,-3.09987 0.428268,-4.72652 0.126596,-1.62664 0.367037,-3.32432 0.534312,-3.77262 l 0.304139,-0.8151 4.954579,0.24801 c 2.72502,0.13641 5.150303,0.40494 5.389513,0.59674 0.31275,0.25076 0.43493,1.79955 0.43493,5.51306 0,4.74972 -0.054,5.19325 -0.67301,5.52452 -0.37196,0.19907 -2.851163,0.36019 -5.542272,0.36019 -4.079839,0 -4.96323,-0.094 -5.448903,-0.57965 z m 21.319665,0.20382 c -0.53658,-0.31253 -0.6089,-0.9674 -0.6089,-5.51394 0,-3.7096 0.12221,-5.25721 0.43493,-5.50778 0.61917,-0.49611 9.51858,-0.93561 9.79777,-0.48387 0.2332,0.37732 0.70988,4.15353 1.04647,8.29 0.28942,3.55671 0.23241,3.594 -5.47594,3.58082 -2.52198,-0.006 -4.85943,-0.17017 -5.19433,-0.36523 z m 14.96188,0.13601 c -0.33476,-0.0875 -0.67764,-0.49991 -0.76194,-0.91648 -0.20209,-0.99862 -0.67087,-7.5952 -0.69671,-9.80399 -0.02,-1.71405 -0.002,-1.74341 1.19746,-1.989499 10.22836,-2.097831 12.00388,-2.354257 12.42052,-1.7938 0.72039,0.969086 2.54112,10.060989 2.54112,12.689239 0,0.96274 -0.18729,1.43419 -0.67301,1.69415 -0.65646,0.35133 -12.74679,0.45509 -14.02744,0.12038 z m 18.60706,-0.19513 c -0.19466,-0.23921 -0.53814,-1.9224 -0.76328,-3.74041 -0.22514,-1.81801 -0.78962,-5.02675 -1.25442,-7.13052 -0.46479,-2.103774 -0.84507,-4.07932 -0.84507,-4.390101 0,-0.421303 1.4274,-1.037577 5.61054,-2.422329 l 5.61053,-1.857262 0.6182,0.763448 c 2.32065,2.865875 5.90768,17.988794 4.48103,18.891994 -0.79993,0.50644 -13.03692,0.40203 -13.45753,-0.11482 z M 92.968134,97.227799 c -0.703072,-0.07729 -1.434355,-0.328544 -1.625078,-0.558348 -0.402482,-0.484963 0.441769,-4.974795 1.887861,-10.03991 1.387974,-4.861547 1.109729,-4.592098 4.442665,-4.302204 1.559734,0.135667 3.034768,0.411191 3.277858,0.612279 0.3365,0.27836 0.41954,2.035574 0.34795,7.36305 l -0.094,6.997436 -3.479451,0.0341 c -1.913699,0.01875 -4.054693,-0.02912 -4.757765,-0.106412 z m 17.718726,0.05342 c -0.14353,-0.149091 -0.26096,-3.357313 -0.26096,-7.129383 0,-5.072927 0.11322,-6.947029 0.43493,-7.199105 0.23921,-0.187438 1.43668,-0.496608 2.66104,-0.687049 1.92017,-0.298666 2.30632,-0.266032 2.80981,0.237462 0.55983,0.559823 2.31108,6.579526 3.32776,11.43873 0.66319,3.169705 0.56995,3.239593 -4.59741,3.446046 -2.26282,0.09041 -4.23164,0.04239 -4.37517,-0.106701 z M 82.41631,95.886734 C 77.092984,94.937 74.542682,94.282578 74.365501,93.820851 73.98773,92.8364 80.037039,81.195482 81.896305,79.329031 l 0.918207,-0.921756 3.976241,1.333413 3.976242,1.333413 -0.04356,1.154096 c -0.04447,1.17825 -2.782149,12.559594 -3.248778,13.506151 -0.346943,0.703772 -1.733633,0.745549 -5.058347,0.152386 z m 41.35425,0.140076 c -0.19948,-0.25654 -0.63381,-1.797325 -0.96518,-3.423969 -0.33137,-1.626644 -1.07076,-4.645792 -1.6431,-6.709219 -0.57233,-2.063429 -0.99095,-3.995799 -0.93027,-4.294158 0.1157,-0.568877 6.38321,-2.884536 7.85991,-2.904007 0.96535,-0.01274 3.62544,3.907568 6.24945,9.210124 2.29287,4.633388 2.69937,5.709269 2.3058,6.102837 -0.35253,0.352528 -7.48378,1.867206 -10.58198,2.247615 -1.43015,0.175601 -2.02613,0.116064 -2.29463,-0.229223 z M 64.500983,91.468982 C 61.442816,90.430421 60.122033,89.817964 60.042479,89.401537 59.749586,87.868379 68.641524,77.3575 72.4843,74.694453 l 1.370487,-0.949748 2.62802,1.450702 c 1.445413,0.797883 2.628023,1.604897 2.628023,1.793365 0,0.188464 -0.62088,1.256949 -1.379731,2.374406 -1.547678,2.279058 -4.618406,8.115565 -6.004634,11.412951 -1.136667,2.703771 -1.267223,2.71629 -7.225482,0.692853 z m 75.101067,-0.170935 c -1.65048,-3.852839 -3.84789,-8.119483 -5.6757,-11.020375 -1.07589,-1.707541 -1.88971,-3.273295 -1.80847,-3.479452 0.0812,-0.206158 1.26564,-0.975019 2.63199,-1.708578 l 2.48429,-1.333747 1.08128,0.684617 c 3.49913,2.215496 12.97816,13.224232 12.75201,14.809919 -0.0879,0.61666 -0.84463,0.992806 -4.45525,2.214689 -5.74912,1.945584 -6.1088,1.937011 -7.01015,-0.167073 z M 96.918854,78.6733 c -0.982409,-0.403738 -0.963666,-0.479138 1.466687,-5.900159 1.173932,-2.618516 2.003009,-4.038738 2.402579,-4.115691 0.56281,-0.108387 0.60264,0.282547 0.51367,5.042029 l -0.0964,5.159526 -1.739725,0.07298 c -0.956849,0.04014 -2.102897,-0.07627 -2.546771,-0.258687 z m 13.768006,0.162793 c -0.14353,-0.146875 -0.26096,-2.110611 -0.26096,-4.363859 0,-5.951755 0.55962,-5.922934 3.13268,0.161332 0.87781,2.075674 1.32612,3.559243 1.13369,3.751667 -0.42408,0.424082 -3.67409,0.789908 -4.00541,0.45086 z M 88.399572,76.734504 c -1.49345,-0.480732 -2.807097,-1.113105 -2.919212,-1.405274 -0.134554,-0.350642 0.670192,-1.418441 2.36742,-3.141272 4.151637,-4.214262 10.747982,-8.872597 10.747982,-7.590218 0,0.09815 -0.845914,1.859626 -1.879812,3.914384 -1.033895,2.054757 -2.302848,4.753662 -2.819887,5.997566 -1.504881,3.62045 -1.352443,3.558746 -5.496491,2.224814 z m 30.122608,0.497482 c -0.21106,-0.254314 -0.70568,-1.279124 -1.09914,-2.277357 -0.39347,-0.998231 -1.65906,-3.707928 -2.81243,-6.021546 -1.15337,-2.313618 -2.09704,-4.275704 -2.09704,-4.360191 0,-0.08449 0.29345,-0.153613 0.65211,-0.153613 1.69263,0 12.8628,9.721854 12.48699,10.867943 -0.15323,0.467319 -3.57822,1.812739 -5.56203,2.184905 -0.79454,0.149056 -1.31109,0.06997 -1.56846,-0.240141 z m -38.955333,-4.14028 c -1.686355,-0.834737 -2.255064,-1.409609 -1.914882,-1.935634 0.353568,-0.546722 5.098261,-3.063056 7.789492,-4.131135 4.009146,-1.591126 3.998572,-1.118379 -0.06827,3.052216 -2.004032,2.055156 -3.802311,3.736525 -3.996175,3.736372 -0.193865,-1.5e-4 -1.008436,-0.324971 -1.810161,-0.721819 z m 46.255633,-2.860811 c -1.96155,-1.978535 -3.56644,-3.724597 -3.56644,-3.880139 0,-0.155541 0.56514,-0.191093 1.25587,-0.079 1.64535,0.267003 9.7482,4.265338 10.00614,4.937506 0.13264,0.345665 -0.25524,0.808258 -1.15283,1.374883 -2.57841,1.627679 -2.60576,1.617843 -6.54274,-2.353247 z"
         id="path1038" />
      <path
         style="fill:#0672d1;stroke-width:0.347945"
         d="m 60.367627,184.78132 c -8.499612,-1.6704 -11.973587,-11.72206 -6.284876,-18.18478 0.78247,-0.88893 2.263635,-2.00978 3.380862,-2.55841 1.681279,-0.82561 2.41815,-0.97539 4.771874,-0.96993 2.309403,0.005 3.111625,0.16663 4.709463,0.94674 1.059246,0.51716 2.390137,1.42663 2.957534,2.02105 l 1.031633,1.08077 -0.97625,0.84304 c -1.226427,1.05908 -2.903217,1.09688 -4.839431,0.1091 -1.0957,-0.55898 -1.875359,-0.69772 -3.270675,-0.58201 -5.810267,0.48183 -8.245536,7.32071 -3.97932,11.17498 2.318557,2.09468 4.796237,2.37771 7.74565,0.88481 1.553359,-0.78626 2.423021,-0.81992 3.729388,-0.14438 1.036174,0.53583 1.564271,1.40625 1.205442,1.98684 -0.495515,0.80177 -4.081105,2.76261 -5.934386,3.24533 -2.204024,0.57407 -2.09264,0.57022 -4.246908,0.14685 z m 87.759893,0.0238 c -7.13574,-1.46423 -11.00391,-8.99903 -7.97552,-15.5355 2.12198,-4.58006 7.48906,-7.20605 12.3464,-6.04078 1.98056,0.47512 5.94394,2.87032 5.94394,3.59211 0,0.82535 -1.56089,1.98193 -2.67477,1.98193 -0.58529,0 -1.81162,-0.33063 -2.72518,-0.73474 -5.61624,-2.48433 -11.3779,2.96554 -8.94643,8.46229 1.61218,3.64459 5.78578,4.98743 9.43021,3.03413 1.67884,-0.8998 2.93723,-0.84551 4.11389,0.17752 1.2061,1.04862 0.95572,1.6147 -1.43082,3.23484 -2.42902,1.64898 -5.53311,2.35117 -8.08172,1.8282 z m -67.102654,-0.76259 c -0.107497,-0.43996 -0.151547,-5.26232 -0.09789,-10.71636 l 0.09756,-9.91644 2.174657,-0.10359 2.174658,-0.10358 v 3.94838 c 0,2.60704 0.141843,4.09023 0.417534,4.36592 0.47196,0.47196 8.858059,0.593 9.573803,0.13818 0.28139,-0.17881 0.455989,-1.60292 0.521918,-4.257 l 0.09907,-3.98831 2.17971,-0.10372 2.179704,-0.10372 -0.092,10.71605 -0.092,10.71605 h -2.087673 -2.087671 l -0.09867,-4.16203 c -0.06622,-2.79342 -0.237845,-4.25046 -0.521918,-4.43097 -0.729105,-0.4633 -8.74657,-0.33075 -9.395919,0.15533 -0.473028,0.3541 -0.59856,1.17861 -0.675407,4.4363 l -0.09439,4.00137 -1.98978,0.10403 c -1.828094,0.0956 -2.005661,0.039 -2.185225,-0.69589 z m 30.656064,0.21546 c -0.27424,-0.71468 -0.26683,-19.2134 0.008,-20.23935 0.20618,-0.76937 0.30331,-0.78288 5.62649,-0.78288 4.78829,0 5.59147,0.0846 6.92324,0.72931 2.83902,1.37435 4.18979,5.3782 2.67791,7.93762 -0.44586,0.75478 -0.53987,1.23581 -0.30429,1.55699 1.48002,2.01777 1.70699,2.56067 1.84014,4.40144 0.11744,1.62365 -0.006,2.28429 -0.63648,3.40606 -1.67176,2.9745 -3.3434,3.54118 -10.44594,3.54118 -4.67422,0 -5.50896,-0.0808 -5.68918,-0.55037 z m 11.94773,-4.89745 c 0.78946,-1.00363 0.69234,-2.07004 -0.25645,-2.81588 -0.35155,-0.27634 -1.72069,-0.43493 -3.75504,-0.43493 -3.50872,0 -3.62415,0.0707 -3.62415,2.22052 0,1.70882 0.48723,1.95483 3.87174,1.95483 2.87256,0 3.07596,-0.05 3.7639,-0.92454 z m -1.02468,-8.46999 c 1.65825,-1.65825 0.32917,-3.20722 -2.92998,-3.41475 -2.87812,-0.18327 -3.68098,0.24546 -3.68098,1.96563 0,1.85595 0.45483,2.14502 3.37507,2.14502 2.07608,0 2.66711,-0.12711 3.23589,-0.6959 z M 97.681759,156.6477 c -7.581504,-6.13448 -18.423807,-10.35716 -30.39194,-11.83656 -4.340679,-0.53656 -15.521064,-0.44808 -20.548283,0.16263 -5.57809,0.67762 -8.605097,1.26356 -15.571301,3.01417 -3.115888,0.78302 -5.760416,1.32851 -5.876727,1.2122 -0.116312,-0.11632 0.04695,-0.56798 0.362796,-1.0037 0.31585,-0.43573 0.963505,-1.37543 1.439234,-2.08822 1.266184,-1.89715 1.981044,-2.23245 6.782414,-3.18122 24.633352,-4.86766 44.815928,-2.5754 57.063015,6.48098 4.106255,3.03646 9.480153,8.29097 8.985372,8.78575 -0.08213,0.0821 -1.092193,-0.61358 -2.24458,-1.54603 z m 15.402801,-0.19691 c 2.93895,-3.74266 7.4669,-7.38158 12.13871,-9.75535 13.07682,-6.6444 30.74928,-8.1015 50.77198,-4.18617 7.21034,1.40994 6.89412,1.25996 8.87561,4.20955 1.23308,1.83554 1.58699,2.59909 1.20468,2.59909 -0.29773,0 -2.05718,-0.3827 -3.90987,-0.85045 -20.22341,-5.10577 -37.85616,-5.33795 -51.90689,-0.6835 -5.97522,1.97935 -11.18981,4.7405 -16.5274,8.75133 l -1.73973,1.30728 z m -12.74907,-7.91541 c -2.100672,-1.89041 -7.201455,-5.23673 -10.573264,-6.93648 -5.850288,-2.94917 -13.934259,-5.0958 -22.133588,-5.87738 -5.802526,-0.55311 -16.289992,-0.22049 -21.734217,0.68933 -2.289641,0.38264 -4.234021,0.62467 -4.320844,0.53785 -0.280475,-0.28048 0.731407,-1.8494 2.365771,-3.66812 1.567237,-1.74403 1.63982,-1.77983 4.204358,-2.07393 5.722498,-0.65627 15.412574,-0.25675 22.442466,0.92528 11.956226,2.01038 21.45242,6.43586 27.979938,13.0394 1.85552,1.87712 3.73549,4.38926 3.47304,4.64088 -0.0759,0.0727 -0.8425,-0.50186 -1.70366,-1.27683 z m 9.61129,0.3476 c 1.64718,-3.19724 7.92816,-8.34753 13.69166,-11.22692 9.06251,-4.52753 17.29876,-6.29154 31.15047,-6.6717 8.59884,-0.23599 10.65362,0.0773 12.78593,1.9495 1.25281,1.09998 2.86661,3.71734 2.44463,3.96486 -0.1479,0.0867 -2.14782,-0.13876 -4.44425,-0.50114 -5.51894,-0.8709 -16.60634,-1.21713 -21.78797,-0.68038 -12.61067,1.3063 -25.25207,6.21952 -31.9446,12.41563 -1.11742,1.03454 -2.1322,1.88097 -2.25507,1.88097 -0.12286,0 0.0388,-0.50887 0.3592,-1.13082 z M 98.073844,136.37382 c -2.314817,-2.29897 -4.61249,-3.75582 -8.524658,-5.4051 -5.117529,-2.15743 -12.978975,-4.10316 -20.180822,-4.99481 -1.818014,-0.22508 -3.429783,-0.52046 -3.581713,-0.65639 -0.339177,-0.30346 34.060938,-0.83129 34.548269,-0.5301 0.40657,0.25128 0.49294,13.76755 0.0876,13.70198 -0.14352,-0.0232 -1.200407,-0.97522 -2.348626,-2.11558 z m 12.654406,1.37923 c -0.0706,-0.43296 -0.0789,-3.59148 -0.0183,-7.01893 l 0.11007,-6.23174 10.99394,0.22968 c 6.04666,0.12633 13.96942,0.22969 17.60613,0.22969 3.63672,0 6.49895,0.11326 6.36053,0.25168 -0.13843,0.13843 -2.16087,0.52452 -4.4943,0.85798 -9.2775,1.3258 -17.0155,3.41968 -22.00066,5.95334 -2.85691,1.45198 -4.22639,2.43798 -6.6437,4.78332 -1.65314,1.60392 -1.79484,1.67388 -1.9137,0.94498 z M 53.242805,111.82681 c -0.259324,-0.41993 0.750427,-6.59395 1.536724,-9.39614 1.300365,-4.634221 2.998355,-8.781947 3.597427,-8.787521 0.208492,-0.0021 2.610278,0.732292 5.337298,1.631626 3.8634,1.274099 4.95822,1.769403 4.95822,2.24313 0,0.334389 -0.311728,1.909642 -0.692728,3.500565 -0.380997,1.59092 -0.855768,4.22348 -1.05504,5.85013 -0.199271,1.62664 -0.442655,3.4664 -0.540849,4.08835 l -0.178534,1.13082 h -6.400686 c -3.520374,0 -6.4732,-0.11743 -6.561832,-0.26096 z m 18.09725,0.029 c -0.127581,-0.12758 -0.231464,-0.71474 -0.230855,-1.3048 0.0024,-2.27688 1.892304,-11.871974 2.400258,-12.185908 0.130469,-0.08063 2.501034,0.30748 5.267926,0.862477 2.766888,0.554993 5.452047,1.013801 5.96702,1.019571 0.514973,0.006 1.032033,0.16536 1.149023,0.35466 0.312591,0.50578 -0.558289,10.54082 -0.959048,11.05103 -0.251575,0.32028 -2.057874,0.43493 -6.851998,0.43493 -3.580701,0 -6.614749,-0.10438 -6.742326,-0.23196 z m 18.728983,-0.11932 c -0.234738,-0.37982 0.397082,-8.70147 0.749286,-9.86872 0.184184,-0.61041 0.485084,-0.63596 4.769887,-0.40491 2.515316,0.13562 4.695329,0.36294 4.844469,0.50514 0.14914,0.1422 0.22743,2.43817 0.17397,5.10217 l -0.0972,4.84364 -5.106001,0.0961 c -3.328851,0.0627 -5.185501,-0.0325 -5.334421,-0.27345 z m 21.209012,-0.0913 c -0.0976,-0.25429 -0.13352,-2.56822 -0.0798,-5.14205 l 0.0976,-4.6797 4.29824,-0.31039 c 3.44642,-0.24887 4.35456,-0.21924 4.58249,0.14956 0.26819,0.43395 0.72111,5.24435 0.81776,8.68549 l 0.044,1.56575 -4.79138,0.0969 c -3.73287,0.0755 -4.83058,-0.005 -4.9688,-0.3655 z m 14.90438,0.008 c -0.32808,-0.42702 -1.25068,-10.70745 -0.98478,-10.97334 0.29928,-0.29929 12.21032,-2.417438 12.42896,-2.210258 0.75102,0.711663 2.69946,11.922228 2.26768,13.047418 -0.1925,0.50166 -1.01927,0.57111 -6.79843,0.57111 -4.85323,0 -6.66694,-0.1141 -6.91343,-0.43493 z m 18.5591,-0.68828 c -0.0909,-0.62612 -0.34237,-2.46931 -0.55875,-4.09595 -0.21638,-1.62665 -0.69773,-4.26165 -1.06966,-5.85556 -0.37195,-1.59391 -0.67626,-3.176737 -0.67626,-3.517393 0,-0.489281 1.04143,-0.958836 4.95822,-2.235555 2.72702,-0.888903 5.13933,-1.615562 5.36068,-1.6148 1.18488,0.0041 4.67604,11.549168 5.0508,16.702758 l 0.11386,1.56575 -6.50678,0.0946 -6.50677,0.0946 -0.16534,-1.13844 z M 94.817289,96.758539 c -1.599737,-0.158646 -2.972527,-0.352361 -3.050648,-0.430478 -0.358954,-0.358958 2.723107,-12.503185 3.38033,-13.319485 0.338554,-0.420506 4.76346,-0.01653 5.260219,0.480216 0.16063,0.160626 0.24935,3.255595 0.19716,6.877708 l -0.0949,6.585656 -1.39178,0.04741 c -0.76548,0.02606 -2.700657,-0.08239 -4.300391,-0.241029 z m 16.536461,0.135625 c -0.12758,-0.127577 -0.23196,-3.249491 -0.23196,-6.937582 v -6.705621 l 1.65274,-0.231397 c 2.85008,-0.399034 2.99158,-0.376188 3.45067,0.557171 0.78506,1.596095 3.30219,12.241875 2.97247,12.571595 -0.1725,0.172497 -1.70784,0.460286 -3.41188,0.639534 -3.74555,0.393992 -4.13501,0.403331 -4.43204,0.1063 z M 81.198501,95.02692 c -4.897499,-0.893871 -5.721214,-1.153125 -5.854035,-1.842488 -0.219964,-1.141626 6.063763,-13.039536 7.306254,-13.83402 0.529385,-0.338502 7.594357,2.137128 7.594357,2.66113 0,0.258402 -0.404695,1.880661 -0.899324,3.605019 -0.494628,1.724357 -1.238361,4.667135 -1.652739,6.539505 -0.741747,3.351572 -0.769586,3.405343 -1.797252,3.470983 -0.57411,0.03667 -2.687877,-0.233388 -4.697261,-0.600129 z m 43.027599,0.446469 c -0.0873,-0.143527 -0.48086,-1.748424 -0.87464,-3.566438 -0.39377,-1.818014 -1.11449,-4.67788 -1.60158,-6.355258 -0.48709,-1.677378 -0.88562,-3.26668 -0.88562,-3.531779 0,-0.570251 6.59944,-2.85138 7.38126,-2.551368 1.04907,0.402566 6.11632,9.129863 7.37913,12.709019 l 0.50449,1.429899 -1.10847,0.349775 c -1.38853,0.43815 -8.81845,1.777109 -9.86122,1.777109 -0.42607,0 -0.84608,-0.117431 -0.93335,-0.260959 z M 66.236857,91.420186 c -4.666537,-1.467744 -5.567123,-1.842774 -5.567123,-2.318307 0,-0.212674 0.819024,-1.586585 1.820056,-3.053132 1.928298,-2.825037 10.350197,-11.539057 11.152229,-11.539057 0.559241,0 4.327231,1.99597 4.599432,2.4364 0.103197,0.166978 -0.517625,1.393816 -1.379607,2.726303 -1.733209,2.679262 -4.303842,7.638779 -5.56102,10.728853 -0.448213,1.101681 -0.948944,2.04018 -1.112736,2.085545 -0.163795,0.04537 -1.941847,-0.434604 -3.951231,-1.066605 z m 74.116493,0.323735 c -1.6723,-4.39848 -4.25761,-9.415839 -6.68559,-12.974825 -0.55595,-0.814933 -0.92114,-1.626797 -0.81153,-1.804148 0.26275,-0.425147 4.02118,-2.455258 4.54552,-2.455258 0.22464,0 2.08443,1.588245 4.13286,3.529435 3.83588,3.635063 9.01055,10.105178 8.83034,11.040966 -0.0648,0.336285 -1.68385,1.066274 -4.44988,2.006297 -2.39144,0.81272 -4.54767,1.486401 -4.79162,1.497062 -0.24394,0.01068 -0.59049,-0.367124 -0.7701,-0.839529 z M 97.435946,78.105123 c -0.127581,-0.127578 -0.231965,-0.461758 -0.231965,-0.74262 0,-0.606907 2.999879,-7.028155 3.283409,-7.028155 0.10783,0 0.19604,1.800616 0.19604,4.00137 v 4.001369 h -1.507758 c -0.829272,0 -1.612149,-0.104383 -1.739726,-0.231964 z m 13.685844,-3.073515 c 0,-1.818014 0.0872,-3.30548 0.19377,-3.30548 0.31911,0 2.58979,5.203111 2.58979,5.934345 0,0.557419 -0.24518,0.676614 -1.39178,0.676614 h -1.39178 z M 89.201241,76.37349 c -0.861164,-0.284285 -1.92341,-0.662449 -2.360547,-0.840364 L 86.0459,75.209641 86.840694,74.127357 c 1.61766,-2.202789 9.702484,-8.745138 10.196486,-8.251135 0.09386,0.09386 -0.359623,1.174478 -1.00774,2.401375 -0.648114,1.226898 -1.690415,3.483326 -2.316226,5.014285 -1.664747,4.072594 -1.614334,4.038162 -4.511973,3.081608 z m 29.660529,0.136885 c -0.19138,-0.239212 -0.46549,-0.817222 -0.60912,-1.284471 -0.14364,-0.467245 -1.19343,-2.78994 -2.33287,-5.161545 -1.13944,-2.371604 -1.99955,-4.384158 -1.91137,-4.472343 0.55611,-0.556103 10.68324,8.396925 10.68324,9.444658 0,0.228513 -1.13517,0.751934 -2.5226,1.163157 -2.95992,0.877298 -2.86126,0.868032 -3.30728,0.310544 z M 79.545762,72.425832 c -0.621953,-0.379211 -1.130822,-0.844969 -1.130822,-1.035018 0,-0.380142 7.527151,-4.187973 8.278601,-4.187973 0.257483,0 -0.756137,1.329657 -2.252486,2.954794 -1.496349,1.625137 -2.955499,2.955442 -3.242554,2.956234 -0.287054,8e-4 -1.030787,-0.308825 -1.652739,-0.688037 z m 47.118148,-2.276737 c -1.49875,-1.62044 -2.50051,-2.946254 -2.22614,-2.946254 0.7947,0 8.25662,3.769042 8.25662,4.170445 0,0.452665 -2.07777,1.745538 -2.78356,1.732043 -0.28705,-0.0055 -1.74817,-1.335794 -3.24692,-2.956234 z"
         id="path1036" />
      <path
         style="fill:#09589f;stroke-width:0.347945"
         d="m 60.367627,184.78132 c -8.499612,-1.6704 -11.973587,-11.72206 -6.284876,-18.18478 0.78247,-0.88893 2.263635,-2.00978 3.380862,-2.55841 1.681279,-0.82561 2.41815,-0.97539 4.771874,-0.96993 2.309403,0.005 3.111625,0.16663 4.709463,0.94674 1.059246,0.51716 2.390137,1.42663 2.957534,2.02105 l 1.031633,1.08077 -0.97625,0.84304 c -1.226427,1.05908 -2.903217,1.09688 -4.839431,0.1091 -1.0957,-0.55898 -1.875359,-0.69772 -3.270675,-0.58201 -5.810267,0.48183 -8.245536,7.32071 -3.97932,11.17498 2.318557,2.09468 4.796237,2.37771 7.74565,0.88481 1.553359,-0.78626 2.423021,-0.81992 3.729388,-0.14438 1.036174,0.53583 1.564271,1.40625 1.205442,1.98684 -0.495515,0.80177 -4.081105,2.76261 -5.934386,3.24533 -2.204024,0.57407 -2.09264,0.57022 -4.246908,0.14685 z m 87.759893,0.0238 c -7.13574,-1.46423 -11.00391,-8.99903 -7.97552,-15.5355 2.12198,-4.58006 7.48906,-7.20605 12.3464,-6.04078 1.98056,0.47512 5.94394,2.87032 5.94394,3.59211 0,0.82535 -1.56089,1.98193 -2.67477,1.98193 -0.58529,0 -1.81162,-0.33063 -2.72518,-0.73474 -5.61624,-2.48433 -11.3779,2.96554 -8.94643,8.46229 1.61218,3.64459 5.78578,4.98743 9.43021,3.03413 1.67884,-0.8998 2.93723,-0.84551 4.11389,0.17752 1.2061,1.04862 0.95572,1.6147 -1.43082,3.23484 -2.42902,1.64898 -5.53311,2.35117 -8.08172,1.8282 z m -67.102654,-0.76259 c -0.107497,-0.43996 -0.151547,-5.26232 -0.09789,-10.71636 l 0.09756,-9.91644 2.174657,-0.10359 2.174658,-0.10358 v 3.94838 c 0,2.60704 0.141843,4.09023 0.417534,4.36592 0.47196,0.47196 8.858059,0.593 9.573803,0.13818 0.28139,-0.17881 0.455989,-1.60292 0.521918,-4.257 l 0.09907,-3.98831 2.17971,-0.10372 2.179704,-0.10372 -0.092,10.71605 -0.092,10.71605 h -2.087673 -2.087671 l -0.09867,-4.16203 c -0.06622,-2.79342 -0.237845,-4.25046 -0.521918,-4.43097 -0.729105,-0.4633 -8.74657,-0.33075 -9.395919,0.15533 -0.473028,0.3541 -0.59856,1.17861 -0.675407,4.4363 l -0.09439,4.00137 -1.98978,0.10403 c -1.828094,0.0956 -2.005661,0.039 -2.185225,-0.69589 z m 30.656064,0.21546 c -0.27424,-0.71468 -0.26683,-19.2134 0.008,-20.23935 0.20618,-0.76937 0.30331,-0.78288 5.62649,-0.78288 4.78829,0 5.59147,0.0846 6.92324,0.72931 2.83902,1.37435 4.18979,5.3782 2.67791,7.93762 -0.44586,0.75478 -0.53987,1.23581 -0.30429,1.55699 1.48002,2.01777 1.70699,2.56067 1.84014,4.40144 0.11744,1.62365 -0.006,2.28429 -0.63648,3.40606 -1.67176,2.9745 -3.3434,3.54118 -10.44594,3.54118 -4.67422,0 -5.50896,-0.0808 -5.68918,-0.55037 z m 11.94773,-4.89745 c 0.78946,-1.00363 0.69234,-2.07004 -0.25645,-2.81588 -0.35155,-0.27634 -1.72069,-0.43493 -3.75504,-0.43493 -3.50872,0 -3.62415,0.0707 -3.62415,2.22052 0,1.70882 0.48723,1.95483 3.87174,1.95483 2.87256,0 3.07596,-0.05 3.7639,-0.92454 z m -1.02468,-8.46999 c 1.65825,-1.65825 0.32917,-3.20722 -2.92998,-3.41475 -2.87812,-0.18327 -3.68098,0.24546 -3.68098,1.96563 0,1.85595 0.45483,2.14502 3.37507,2.14502 2.07608,0 2.66711,-0.12711 3.23589,-0.6959 z m -22.26849,-22.35513 c -2.100672,-1.89041 -7.201455,-5.23673 -10.573264,-6.93648 -5.850288,-2.94917 -13.934259,-5.0958 -22.133588,-5.87738 -5.802526,-0.55311 -16.289992,-0.22049 -21.734217,0.68933 -2.289641,0.38264 -4.234021,0.62467 -4.320844,0.53785 -0.280475,-0.28048 0.731407,-1.8494 2.365771,-3.66812 1.567237,-1.74403 1.63982,-1.77983 4.204358,-2.07393 5.722498,-0.65627 15.412574,-0.25675 22.442466,0.92528 11.956226,2.01038 21.45242,6.43586 27.979938,13.0394 1.85552,1.87712 3.73549,4.38926 3.47304,4.64088 -0.0759,0.0727 -0.8425,-0.50186 -1.70366,-1.27683 z m 9.61129,0.3476 c 1.64718,-3.19724 7.92816,-8.34753 13.69166,-11.22692 9.06251,-4.52753 17.29876,-6.29154 31.15047,-6.6717 8.59884,-0.23599 10.65362,0.0773 12.78593,1.9495 1.25281,1.09998 2.86661,3.71734 2.44463,3.96486 -0.1479,0.0867 -2.14782,-0.13876 -4.44425,-0.50114 -5.51894,-0.8709 -16.60634,-1.21713 -21.78797,-0.68038 -12.61067,1.3063 -25.25207,6.21952 -31.9446,12.41563 -1.11742,1.03454 -2.1322,1.88097 -2.25507,1.88097 -0.12286,0 0.0388,-0.50887 0.3592,-1.13082 z M 53.242805,111.82681 c -0.259324,-0.41993 0.750427,-6.59395 1.536724,-9.39614 1.300365,-4.634221 2.998355,-8.781947 3.597427,-8.787521 0.208492,-0.0021 2.610278,0.732292 5.337298,1.631626 3.8634,1.274099 4.95822,1.769403 4.95822,2.24313 0,0.334389 -0.311728,1.909642 -0.692728,3.500565 -0.380997,1.59092 -0.855768,4.22348 -1.05504,5.85013 -0.199271,1.62664 -0.442655,3.4664 -0.540849,4.08835 l -0.178534,1.13082 h -6.400686 c -3.520374,0 -6.4732,-0.11743 -6.561832,-0.26096 z m 91.498725,-0.86225 c -0.0909,-0.62613 -0.34237,-2.46932 -0.55875,-4.09596 -0.21638,-1.62665 -0.69773,-4.26165 -1.06966,-5.85556 -0.37195,-1.59391 -0.67626,-3.176737 -0.67626,-3.517393 0,-0.489281 1.04143,-0.958836 4.95822,-2.235555 2.72702,-0.888903 5.13933,-1.615562 5.36068,-1.6148 1.18488,0.0041 4.67604,11.549168 5.0508,16.702758 l 0.11386,1.56575 -6.50678,0.0946 -6.50677,0.0946 z M 66.236857,91.420186 c -4.666537,-1.467744 -5.567123,-1.842774 -5.567123,-2.318307 0,-0.212674 0.819024,-1.586585 1.820056,-3.053132 1.928298,-2.825037 10.350197,-11.539057 11.152229,-11.539057 0.559241,0 4.327231,1.99597 4.599432,2.4364 0.103197,0.166978 -0.517625,1.393816 -1.379607,2.726303 -1.733209,2.679262 -4.303842,7.638779 -5.56102,10.728853 -0.448213,1.101681 -0.948944,2.04018 -1.112736,2.085545 -0.163795,0.04537 -1.941847,-0.434604 -3.951231,-1.066605 z m 74.116493,0.323735 c -1.6723,-4.39848 -4.25761,-9.415839 -6.68559,-12.974825 -0.55595,-0.814933 -0.92114,-1.626797 -0.81153,-1.804148 0.26275,-0.425147 4.02118,-2.455258 4.54552,-2.455258 0.22464,0 2.08443,1.588245 4.13286,3.529435 3.83588,3.635063 9.01055,10.105178 8.83034,11.040966 -0.0648,0.336285 -1.68385,1.066274 -4.44988,2.006297 -2.39144,0.81272 -4.54767,1.486401 -4.79162,1.497062 -0.24394,0.01068 -0.59049,-0.367124 -0.7701,-0.839529 z M 79.545762,72.425832 c -0.621953,-0.379211 -1.130822,-0.844969 -1.130822,-1.035018 0,-0.380142 7.527151,-4.187973 8.278601,-4.187973 0.257483,0 -0.756137,1.329657 -2.252486,2.954794 -1.496349,1.625137 -2.955499,2.955442 -3.242554,2.956234 -0.287054,8e-4 -1.030787,-0.308825 -1.652739,-0.688037 z m 47.118148,-2.276737 c -1.49875,-1.62044 -2.50051,-2.946254 -2.22614,-2.946254 0.7947,0 8.25662,3.769042 8.25662,4.170445 0,0.452665 -2.07777,1.745538 -2.78356,1.732043 -0.28705,-0.0055 -1.74817,-1.335794 -3.24692,-2.956234 z"
         id="path1034" />
    </g>
  </g>
</svg>
